# xmcd
#
# Track frame offsets: 
#        150
#        18877
#        38882
#        60445
#        74697
#        89422
#        105335
#        125300
#        143370
#        159253
#        171259
#        185138
#        193737
#        215579
#        237602
#        268485
#        289174
#        317108
#
# Disc length: 4617 seconds
#
# Revision: 0
# Processed by: cddbd v1.5.2PL0 Copyright (c) Steve Scherf et al.
# Submitted via: ExactAudioCopy v0.99pb5
#
DISCID=0e120712
DTITLE=Alvin Lee - Freefall and Unreleased Album
DYEAR=2004
DGENRE=Blues-Rock
TTITLE0=I Don't Wanna Stop
TTITLE1=Take The money
TTITLE2=One Lonely Hour
TTITLE3=Heartache
TTITLE4=Stealin'
TTITLE5=Ridin' Truckin'
TTITLE6=No More Lonely Nights
TTITLE7=City Lights
TTITLE8=Sooner Or Later
TTITLE9=Dustbin City
TTITLE10=So Sad (No Love Of His Own)
TTITLE11=Madness
TTITLE12=Midnight Special
TTITLE13=Snake Jam
TTITLE14=Break Jam
TTITLE15=Real Life Blues
TTITLE16=Shuffle It
TTITLE17=Somebody Callin' Me
EXTD=
EXTT0=
EXTT1=
EXTT2=
EXTT3=
EXTT4=
EXTT5=
EXTT6=
EXTT7=
EXTT8=
EXTT9=
EXTT10=
EXTT11=
EXTT12=
EXTT13=
EXTT14=
EXTT15=
EXTT16=
EXTT17=
PLAYORDER=
